Coordinates
version=1
nRows=12
nColumns=34
inDegrees=yes

Units are S.I. units (second, meters, Newtons, ...)
If the header above contains a line with 'inDegrees', this indicates whether rotational values are in degrees (yes) or radians (no).

endheader
time	pelvis_tilt	pelvis_list	pelvis_rotation	pelvis_tx	pelvis_ty	pelvis_tz	hip_flexion_r	hip_adduction_r	hip_rotation_r	knee_angle_r	ankle_angle_r	subtalar_angle_r	mtp_angle_r	hip_flexion_l	hip_adduction_l	hip_rotation_l	knee_angle_l	ankle_angle_l	subtalar_angle_l	mtp_angle_l	lumbar_extension	lumbar_bending	lumbar_rotation	arm_flex_r	arm_add_r	arm_rot_r	elbow_flex_r	pro_sup_r	arm_flex_l	arm_add_l	arm_rot_l	elbow_flex_l	pro_sup_l
      2.20000000	     -5.23099120	      3.83453943	     -3.67167141	     -0.04766191	      1.22472477	     -0.10020895	      1.63505400	     -0.32283604	      0.99404125	      0.00000000	      2.66417116	    -13.57951069	      0.00000000	      0.93023293	      0.44131969	     -6.88426228	      0.00000000	      1.54748840	     -0.44229155	      0.00000000	      0.90173520	     -0.61568759	      3.89758133	      6.43927611	     -4.53797216	     33.78678414	     25.36264269	     77.46736108	      5.99026534	     -5.54037601	     28.14657222	     26.09293315	     72.18418496
      2.21666670	     -5.17426870	      3.82324142	     -3.59736028	     -0.04531212	      1.22423103	     -0.10039269	      1.43503508	     -0.32258247	      0.94254390	      0.00000000	      2.83653872	    -13.72541131	      0.00000000	      0.76635784	      0.44515811	     -6.88224360	      0.00000000	      1.66946830	     -0.46643534	      0.00000000	      1.02108559	     -0.67698625	      3.78670077	      6.04343278	     -4.80562638	     33.73584893	     25.19636069	     77.43893621	      5.54914376	     -5.51163657	     28.18030855	     25.92841528	     72.19966169
      2.23333330	     -5.27652962	      3.80146901	     -3.36325747	     -0.04540676	      1.22568958	     -0.10081911	      1.37977714	     -0.31709241	      0.89127376	      0.00000000	      3.46647712	    -14.22222466	      0.00000000	      0.80189277	      0.43795655	     -6.74141040	      0.00000000	      2.18559085	     -0.41665284	      0.00000000	      1.57459492	     -0.53584559	      3.28132145	      5.64160574	     -4.83708303	     33.30533501	     24.95736259	     77.22170979	      5.12797224	     -5.44282209	     28.15548949	     25.27139722	     72.29220150
      2.25000000	     -5.24389116	      3.82184092	     -3.22547261	     -0.04213832	      1.22772207	     -0.10180473	      1.20870247	     -0.38346566	      0.86246256	      0.00000000	      3.41107311	    -14.23179777	      0.00000000	      0.68071843	      0.47359894	     -6.83765009	      0.00000000	      2.11863767	     -0.42182784	      0.00000000	      1.68238106	     -0.61041557	      3.17508089	      5.26954042	     -5.15673354	     33.24206390	     24.78143632	     77.19270241	      4.80156222	     -5.45767959	     28.17066801	     25.13827882	     72.30409248
      2.26666670	     -5.19954467	      3.83383619	     -3.12359278	     -0.04158223	      1.22877921	     -0.10086273	      1.05214284	     -0.41505050	      0.76768843	      0.00000000	      3.43835793	    -14.30509810	      0.00000000	      0.55152614	      0.49939285	     -6.98379101	      0.00000000	      2.05374427	     -0.45018330	      0.00000000	      1.85083176	     -0.63577345	      3.02755812	      4.81403964	     -5.36460225	     33.18274112	     24.61629218	     77.16082750	      4.48127882	     -5.48598025	     28.18333625	     24.98951781	     72.31638782
      2.28333330	     -5.77256425	      3.86040708	     -2.94558213	     -0.03768203	      1.22992040	     -0.09975706	      1.48671018	     -0.40897329	      0.49805771	      0.00000000	      3.29771693	    -14.26859288	      0.00000000	      1.00509442	      0.46906094	     -7.01275327	      0.00000000	      1.90395362	      0.01824646	      0.00000000	      3.25911310	     -0.65193742	      2.55728067	      4.15832909	     -5.00217058	     31.66401088	     23.89431161	     76.46471035	      3.96378736	     -5.34279993	     28.02963124	     23.62194447	     72.55098590
      2.30000000	     -5.76553408	      3.83253322	     -2.97487852	     -0.04062512	      1.23218660	     -0.09840871	      1.42364862	     -0.32217562	      0.48093607	      0.00000000	      3.32215570	    -14.28950003	      0.00000000	      0.91858939	      0.41202281	     -7.05539301	      0.00000000	      1.86650241	      0.01893282	      0.00000000	      3.25207323	     -0.70244463	      2.49624658	      3.86709798	     -5.15001376	     31.62952364	     23.78001232	     76.44434436	      3.85188205	     -5.40723781	     28.02652282	     23.57355580	     72.55929296
      2.31666670	     -5.70884803	      3.79072372	     -2.88288169	     -0.04011444	      1.23268298	     -0.09835839	      1.29110035	     -0.23932515	      0.50724146	      0.00000000	      3.34051282	    -14.29046512	      0.00000000	      0.82344647	      0.34869804	     -7.06814668	      0.00000000	      1.79287081	      0.06683644	      0.00000000	      3.31841521	     -0.75703512	      2.43818797	      3.53110764	     -5.29368462	     31.58693084	     23.64712995	     76.41991244	      3.68810120	     -5.50804452	     28.02293092	     23.49858508	     72.56770662
      2.33333330	     -5.67902333	      3.79331415	     -2.94368674	     -0.04275636	      1.22885886	     -0.09906750	      1.29249230	     -0.20386740	      0.50299473	      0.00000000	      3.35655811	    -14.29382272	      0.00000000	      0.79378774	      0.34349709	     -7.05583587	      0.00000000	      1.77506032	      0.10138021	      0.00000000	      3.35136240	     -0.75523466	      2.36783347	      3.39019944	     -5.34544157	     31.55776653	     23.58258004	     76.40425912	      3.71468835	     -5.55982276	     28.01402995	     23.48293190	     72.57220046
      2.35000000	     -5.66270078	      3.76262508	     -2.79820326	     -0.04284462	      1.23045605	     -0.09934279	      1.31313305	     -0.13979905	      0.56547001	      0.00000000	      3.37569746	    -14.26929893	      0.00000000	      0.80927785	      0.30702153	     -7.09397303	      0.00000000	      1.76382157	      0.13383023	      0.00000000	      3.34481505	     -0.80582941	      2.28403702	      3.18286462	     -5.48196320	     31.50671151	     23.46409932	     76.37994337	      3.70045934	     -5.65871581	     28.00288843	     23.44054952	     72.57771626
      2.36666670	     -5.66181500	      3.76910772	     -2.80978917	     -0.03984989	      1.22802908	     -0.09893069	      1.30122902	     -0.14052418	      0.56518189	      0.00000000	      3.37263563	    -14.26690246	      0.00000000	      0.81284156	      0.30198365	     -7.08950888	      0.00000000	      1.76086054	      0.14066150	      0.00000000	      3.34584870	     -0.80445224	      2.27380740	      3.17110523	     -5.49073676	     31.50192973	     23.45546573	     76.37775564	      3.71054622	     -5.66562557	     28.00121749	     23.44028613	     72.57810519
      2.38333330	     -6.11672120	      3.78358281	     -2.68235787	     -0.03883525	      1.23319505	     -0.09841268	      1.70616059	     -0.10820128	      0.28407330	      0.00000000	      3.39623400	    -13.71896661	      0.00000000	      1.26841467	      0.27763183	     -7.50794664	      0.00000000	      2.23146677	      1.54137200	      0.00000000	      4.32748166	     -0.79603378	      2.11633896	      2.64761732	     -5.04657070	     29.41305053	     22.09698621	     75.39542751	      3.43994879	     -5.75756862	     27.97122973	     23.01893243	     72.82356586
